# xmcd
#
# Track frame offsets:
#	150
#	18813
#	39350
#	57640
#	77038
#	92988
#	112668
#	129653
#	146743
#	166598
#
# Disc length: 2454 seconds
#
# Revision: 1
# Processed by: cddbd v1.5.2PL0 Copyright (c) Steve Scherf et al.
# Submitted via: audiograbber 1.83.01
#
DISCID=7809940a
DTITLE=Bilgeri - Lonely Fighter
DYEAR=1991
DGENRE=
TTITLE0=Lonely Fighter
TTITLE1=In Love with two Ladies
TTITLE2=Ticket to Love
TTITLE3=Tango Me
TTITLE4=Only one Woman
TTITLE5=When Love rules the World
TTITLE6=Midas Touch
TTITLE7=Nothing Without you
TTITLE8=Keep your Love alive
TTITLE9=Dreaming of a better tommorrow
EXTD=
EXTT0=
EXTT1=
EXTT2=
EXTT3=
EXTT4=
EXTT5=
EXTT6=
EXTT7=
EXTT8=
EXTT9=
PLAYORDER=
